<svg width="100px" viewBox="0 0 126 144" version="1.1" xmlns="http://www.w3.org/2000/svg" xmlns:xlink="http://www.w3.org/1999/xlink" xml:space="preserve" xmlns:serif="http://www.serif.com/" style="fill-rule:evenodd;clip-rule:evenodd;stroke-miterlimit:6;">
    <g transform="matrix(1,0,0,1,-42.1351,-28.6252)">
        <path class="head" d="M125.456,98.428L125.542,112.752L140.294,134.909L70.421,164.495L70.421,144.898L84.963,125.55L58.504,125.55L58.489,113.072L62.431,109L62.45,106.764L58.521,103.812L58.517,97.498C58.517,97.498 52.257,97.468 49.211,97.453L48.387,96.03C50.906,91.587 58.49,78.211 58.49,78.211L58.522,69.449L66.058,58.328" style="fill:none;stroke:rgb(176,22,59);stroke-width:5px;"/>
    </g>
    <g transform="matrix(0.133568,-0.44541,0.639035,0.191631,58.5657,75.7343)">
        <rect x="25" y="28" width="9" height="10" style="fill:white;"/>
    </g>
    <g transform="matrix(1,0,0,1,-42.1351,-28.6252)">
        <path class="hat" d="M53.983,34.647L53.992,34.625L111.338,34.625C111.338,34.625 161.097,62.948 161.883,63.395L161.883,63.404C161.377,63.572 142.396,69.9 142.396,69.9L126.946,93.074L90.5,82.14L90.5,66.662L66.5,50.662L66.5,46.952C66.5,46.952 54.573,35.228 53.983,34.647Z" style="fill:none;stroke:rgb(176,22,59);stroke-width:5px;stroke-linecap:round;stroke-miterlimit:3;"/>
    </g>
</svg>